# xmcd
#
# Track frame offsets:
#   150
#   15715
#   19315
#   27234
#   28897
#   32856
#   39801
#   44820
#   47785
#   54878
#   59945
#   62917
#   66348
#   75073
#   80187
#   84688
#   87756
#   97330
#   109786
#   114210
#   117960
#   124776
#   131083
#   137903
#   142312
#   146988
#   154485
#   156380
#   165163
#   178990
#   180947
#   188055
#   194877
#   197131
#   204369
#
# Disc length: 2822 seconds
#
# Revision: 0
# Processed by: cddbd v1.5.2PL0 Copyright (c) Steve Scherf et al.
# Submitted via: uFREEDB ActiveX Control 1.5
#
DISCID=110b0423
DTITLE=Chiaro! A2 - Chiaro! A2
DYEAR=1900
DGENRE=Books and Spoken
TTITLE0=Chiaro1
TTITLE1=Chiaro2
TTITLE2=Chiaro3
TTITLE3=Chiaro4
TTITLE4=Chiaro5
TTITLE5=Chiaro6
TTITLE6=Chiaro7
TTITLE7=Chiaro8
TTITLE8=Chiaro9
TTITLE9=Chiaro10
TTITLE10=Chiaro11
TTITLE11=Chiaro12
TTITLE12=Chiaro13
TTITLE13=Chiaro14
TTITLE14=Chiaro15
TTITLE15=Chiaro16
TTITLE16=Chiaro17
TTITLE17=Chiaro18
TTITLE18=Chiaro19
TTITLE19=Chiaro20
TTITLE20=Chiaro21
TTITLE21=Chiaro22
TTITLE22=Chiaro23
TTITLE23=Chiaro24
TTITLE24=Chiaro25
TTITLE25=Chiaro26
TTITLE26=Chiaro27
TTITLE27=Chiaro28
TTITLE28=Chiaro29
TTITLE29=Chiaro30
TTITLE30=Chiaro31
TTITLE31=Chiaro32
TTITLE32=Chiaro33
TTITLE33=Chiaro34
TTITLE34=Chiaro35
EXTD=
EXTT0=
EXTT1=
EXTT2=
EXTT3=
EXTT4=
EXTT5=
EXTT6=
EXTT7=
EXTT8=
EXTT9=
EXTT10=
EXTT11=
EXTT12=
EXTT13=
EXTT14=
EXTT15=
EXTT16=
EXTT17=
EXTT18=
EXTT19=
EXTT20=
EXTT21=
EXTT22=
EXTT23=
EXTT24=
EXTT25=
EXTT26=
EXTT27=
EXTT28=
EXTT29=
EXTT30=
EXTT31=
EXTT32=
EXTT33=
EXTT34=
PLAYORDER=
